<?xml version="1.0" standalone="no"?><!-- Generator: Gravit.io --><svg xmlns="http://www.w3.org/2000/svg" xmlns:xlink="http://www.w3.org/1999/xlink" style="isolation:isolate" viewBox="0 0 512 512" width="512" height="512"><defs><clipPath id="_clipPath_Tuf7n0D9bC6hxNbtgT4pIrhJ6bt3WeD7"><rect width="512" height="512"/></clipPath></defs><g clip-path="url(#_clipPath_Tuf7n0D9bC6hxNbtgT4pIrhJ6bt3WeD7)"><g><g><path d=" M 216.689 64.92 C 235.931 52.354 261.316 56.934 275.351 75.465 C 289.477 93.937 287.17 119.631 271.329 134.219 C 260.389 144.281 247.534 147.721 233.154 144.929 C 230.821 144.528 229.982 144.824 229.193 147.154 C 213.566 192.236 197.938 237.318 182.162 282.369 C 181.344 284.46 181.696 285.778 183.335 287.283 C 191.348 294.922 196.031 304.371 197.115 315.418 C 197.371 318.352 198.296 318.775 200.872 318.369 C 238.722 313.044 276.573 307.719 314.424 302.394 C 321.641 301.381 328.947 300.309 336.224 299.386 C 338.768 299.129 339.939 298.357 340.64 295.697 C 346.942 273.313 365.973 261.015 389.09 264.119 C 406.286 266.475 421.598 281.062 425.433 298.826 C 429.385 317.159 422.027 335.199 406.718 344.911 C 382.766 359.938 351.251 348.416 341.746 321.079 C 340.831 318.321 339.697 317.777 337.031 318.243 C 290.197 324.842 243.362 331.44 196.528 338.039 C 194.522 338.328 193.202 339.07 192.265 340.981 C 177.683 367.664 140.112 370.865 121.074 347.104 C 106.557 329.019 106.671 305.289 121.802 288.843 C 132.15 277.491 145.338 273.185 160.468 275.742 C 162.949 276.173 163.641 275.458 164.4 273.277 C 180.058 228.045 195.775 182.904 211.552 137.853 C 212.462 135.313 211.961 133.575 210.144 131.801 C 193.054 113.734 193.936 85.878 211.972 68.937 C 213.177 67.237 214.947 66.199 216.689 64.92 Z " fill="rgb(255,255,255)"/></g></g></g></svg>